<svg aria-hidden="true" style="position:absolute;width:0;height:0" xmlns="http://www.w3.org/2000/svg" overflow="hidden"><defs><symbol id="icon-triangle-left" viewBox="0 0 20 20"><path d="M14 5v10l-9-5 9-5z"/></symbol><symbol id="icon-triangle-right" viewBox="0 0 20 20"><path d="M15 10l-9 5V5l9 5z"/></symbol><symbol id="icon-check" viewBox="0 0 20 20"><path d="M8.294 16.998c-.435 0-.847-.203-1.111-.553L3.61 11.724a1.392 1.392 0 01.27-1.951 1.392 1.392 0 011.953.27l2.351 3.104 5.911-9.492c.407-.652 1.267-.852 1.921-.445s.854 1.266.446 1.92L9.478 16.34a1.39 1.39 0 01-1.12.656c-.022.002-.042.002-.064.002z"/></symbol><symbol id="icon-circle-with-cross" viewBox="0 0 20 20"><path d="M10 1.6a8.4 8.4 0 100 16.8 8.4 8.4 0 000-16.8zm4.789 11.461L13.06 14.79 10 11.729l-3.061 3.06L5.21 13.06 8.272 10 5.211 6.939 6.94 5.211 10 8.271l3.061-3.061 1.729 1.729L11.728 10l3.061 3.061z"/></symbol><symbol id="icon-circle-with-minus" viewBox="0 0 20 20"><path d="M10 1.6a8.4 8.4 0 100 16.8 8.4 8.4 0 000-16.8zm5 9.4H5V9h10v2z"/></symbol><symbol id="icon-circle-with-plus" viewBox="0 0 20 20"><path d="M10 1.6a8.4 8.4 0 100 16.8 8.4 8.4 0 000-16.8zm5 9.4h-4v4H9v-4H5V9h4V5h2v4h4v2z"/></symbol><symbol id="icon-cw" viewBox="0 0 20 20"><path d="M19.315 10h-2.372v-.205c-.108-4.434-3.724-7.996-8.169-7.996C4.259 1.799.6 5.471.6 10s3.659 8.199 8.174 8.199a8.13 8.13 0 005.033-1.738l-1.406-1.504a6.099 6.099 0 01-3.627 1.193c-3.386 0-6.131-2.754-6.131-6.15s2.745-6.15 6.131-6.15c3.317 0 6.018 2.643 6.125 5.945V10h-2.672l3.494 3.894L19.315 10z"/></symbol><symbol id="icon-heart-outlined" viewBox="0 0 20 20"><path d="M17.19 4.156c-1.672-1.535-4.383-1.535-6.055 0L10 5.197 8.864 4.156c-1.672-1.535-4.382-1.535-6.054 0-1.881 1.726-1.881 4.519 0 6.245L10 17l7.19-6.599c1.88-1.726 1.88-4.52 0-6.245zm-1.066 5.219L10 15.09 3.875 9.375c-.617-.567-.856-1.307-.856-2.094s.138-1.433.756-1.999c.545-.501 1.278-.777 2.063-.777s1.517.476 2.062.978L10 7.308l2.099-1.826c.546-.502 1.278-.978 2.063-.978s1.518.276 2.063.777c.618.566.755 1.212.755 1.999s-.238 1.528-.856 2.095z"/></symbol><symbol id="icon-heart" viewBox="0 0 20 20"><path d="M17.19 4.155c-1.672-1.534-4.383-1.534-6.055 0L10 5.197 8.864 4.155c-1.672-1.534-4.382-1.534-6.054 0-1.881 1.727-1.881 4.52 0 6.246L10 17l7.19-6.599c1.88-1.726 1.88-4.52 0-6.246z"/></symbol><symbol id="icon-magnifying-glass" viewBox="0 0 20 20"><path d="M17.545 15.467l-3.779-3.779a6.15 6.15 0 00.898-3.21c0-3.417-2.961-6.377-6.378-6.377S2.1 4.87 2.1 8.287c0 3.416 2.961 6.377 6.377 6.377a6.15 6.15 0 003.115-.844l3.799 3.801a.953.953 0 001.346 0l.943-.943c.371-.371.236-.84-.135-1.211zM4.004 8.287c0-2.366 1.917-4.283 4.282-4.283s4.474 2.107 4.474 4.474c0 2.365-1.918 4.283-4.283 4.283s-4.473-2.109-4.473-4.474z"/></symbol><symbol id="icon-man" viewBox="0 0 20 20"><path d="M10 4a2 2 0 10-.001-4.001A2 2 0 0010 4zm5.978 7.583c-.385-1.775-1.058-4.688-2.042-5.894-.957-1.173-2.885-1.222-3.936-1.222-1.051 0-2.979.049-3.936 1.222-.984 1.206-1.657 4.119-2.042 5.894-.213.983 1.154 1.344 1.511.355.531-1.473.941-2.71 1.839-3.736C7.844 11.109 6.102 16.168 6 19a1 1 0 001.934.358C8.391 17.771 10 13.355 10 13.355s1.609 4.416 2.066 6.003A1 1 0 0014 19c-.102-2.832-1.844-7.891-1.372-10.797.898 1.026 1.308 2.263 1.839 3.736.356.988 1.724.627 1.511-.356z"/></symbol><symbol id="icon-shopping-cart" viewBox="0 0 20 20"><path d="M13 17a2 2 0 103.999.001A2 2 0 0013 17zM3 17a2 2 0 104 0 2 2 0 00-4 0zm3.547-4.828L17.615 9.01A.564.564 0 0018 8.5V3H4V1.4c0-.22-.181-.4-.399-.4H.399A.401.401 0 000 1.4V3h2l1.91 8.957.09.943v1.649c0 .219.18.4.4.4h13.2c.22 0 .4-.182.4-.4V13H6.752c-1.15 0-1.174-.551-.205-.828z"/></symbol><symbol id="icon-squared-cross" viewBox="0 0 20 20"><path d="M16 2H4c-1.1 0-2 .9-2 2v12c0 1.1.9 2 2 2h12c1.1 0 2-.9 2-2V4c0-1.1-.9-2-2-2zm-2.939 12.789L10 11.729l-3.061 3.06-1.729-1.728L8.271 10l-3.06-3.061L6.94 5.21 10 8.271l3.059-3.061 1.729 1.729L11.729 10l3.06 3.061-1.728 1.728z"/></symbol><symbol id="icon-stopwatch" viewBox="0 0 20 20"><path d="M7.376 6.745c-.447.275 1.197 4.242 1.598 4.888a1.206 1.206 0 002.053-1.266c-.397-.648-3.205-3.898-3.651-3.622zm-.335-4.343a8.98 8.98 0 015.918 0c.329.114.765-.115.572-.611-.141-.36-.277-.712-.332-.855-.131-.339-.6-.619-.804-.665C11.623.097 10.823 0 10 0S8.377.097 7.604.271c-.204.046-.672.326-.803.665l-.332.855c-.193.496.243.726.572.611zm12.057.784a10.132 10.132 0 00-1.283-1.285c-.153-.129-.603-.234-.888.051l-1.648 1.647c.402.288.793.605 1.155.966s.677.752.966 1.155l1.647-1.647c.286-.286.181-.735.051-.887zM10 2.9a8.1 8.1 0 10-.001 16.201A8.1 8.1 0 0010 2.9zm0 14.201A6.1 6.1 0 1110.001 4.9 6.1 6.1 0 0110 17.1z"/></symbol></defs></svg>